<?xml version="1.0" standalone="no"?>
<!DOCTYPE svg PUBLIC "-//W3C//DTD SVG 20010904//EN"
 "http://www.w3.org/TR/2001/REC-SVG-20010904/DTD/svg10.dtd">
<svg version="1.0" xmlns="http://www.w3.org/2000/svg"
 width="700.000000pt" height="700.000000pt" viewBox="0 0 700.000000 700.000000"
 preserveAspectRatio="xMidYMid meet">
<metadata>
Created by potrace 1.11, written by Peter Selinger 2001-2013
</metadata>
<g transform="translate(0.000000,700.000000) scale(0.100000,-0.100000)"
fill="#000000" stroke="none">
<path d="M3081 6776 c18 -52 56 -209 65 -271 3 -16 9 -55 14 -85 27 -158 30
-546 5 -665 -3 -11 -7 -37 -10 -58 -44 -320 -188 -684 -386 -979 -44 -65 -76
-119 -71 -119 4 -1 23 -3 42 -4 182 -12 376 -66 545 -154 l90 -46 -90 -6
c-142 -10 -193 -18 -300 -45 -313 -80 -582 -243 -797 -484 -190 -212 -331
-500 -375 -764 -10 -60 -17 -67 -114 -105 -333 -132 -624 -325 -885 -585 -203
-204 -365 -426 -487 -671 -81 -161 -97 -199 -162 -390 -65 -190 -109 -442
-121 -688 l-7 -128 94 93 c109 109 156 150 259 227 41 31 77 58 80 62 3 3 46
31 96 61 118 73 288 158 395 198 46 17 93 35 104 40 20 9 153 49 184 55 9 2
57 12 106 24 50 11 113 22 140 26 28 3 82 10 120 14 83 10 394 11 483 2 34 -4
62 -3 62 1 0 5 -11 31 -25 57 -68 136 -121 349 -129 521 -2 58 -2 97 1 88 2
-10 8 -18 12 -18 4 0 13 -12 20 -26 21 -48 132 -184 220 -272 212 -211 544
-387 811 -428 14 -2 53 -9 87 -15 71 -13 302 -16 383 -5 100 12 252 47 334 74
l81 28 80 -65 c325 -263 806 -477 1203 -537 20 -3 48 -7 62 -9 105 -16 172
-20 365 -20 194 0 340 8 378 20 7 2 32 6 57 9 113 14 311 66 460 119 127 46
184 71 314 137 108 54 139 80 97 80 -85 0 -431 126 -611 222 -448 239 -805
606 -1037 1066 l-72 143 -28 -43 c-15 -24 -30 -45 -33 -48 -3 -3 -27 -32 -54
-65 -50 -60 -70 -81 -162 -164 -49 -45 -216 -162 -222 -156 -2 2 17 45 41 97
71 146 118 297 144 463 10 60 10 382 0 445 -43 288 -158 549 -341 779 -29 36
-97 108 -150 158 l-98 93 8 42 c8 49 8 48 19 148 4 41 9 84 11 95 5 26 4 381
-1 419 -2 16 -6 57 -9 90 -4 34 -8 72 -11 86 -51 273 -108 475 -174 623 -11
23 -33 72 -49 108 -50 111 -205 370 -268 448 -7 9 -40 51 -73 93 -63 79 -229
251 -313 325 -123 107 -389 293 -421 293 -3 0 3 -24 14 -54z"/>
</g>
</svg>
