<?xml version="1.0" encoding="UTF-8" standalone="no"?>
<!-- Created with Inkscape (http://www.inkscape.org/) -->

<svg
   xmlns:svg="http://www.w3.org/2000/svg"
   xmlns="http://www.w3.org/2000/svg"
   version="1.0"
   width="20cm"
   height="20cm"
   id="svg2">
  <title
     id="title3771">Klingonska Akademien's Logotype</title>
  <defs
     id="defs4">
    <marker
       refX="0"
       refY="0"
       orient="auto"
       id="StopM"
       style="overflow:visible">
      <path
         d="M 0,5.65 0,-5.65"
         transform="scale(0.4,0.4)"
         id="path4951"
         style="fill:none;stroke:#000000;stroke-width:1pt" />
    </marker>
    <marker
       refX="0"
       refY="0"
       orient="auto"
       id="Legs"
       style="overflow:visible">
      <g
         transform="scale(-0.7,-0.7)"
         id="g4914">
        <g
           transform="matrix(0,-1,-1,0,20.70862,21.31391)"
           id="g4916">
          <path
             d="m 21.22125,20.67536 c -6.910151,4.721157 -2.454525,6.606844 -5.841071,13.443235"
             id="path4918"
             style="fill:none;stroke:#000000;stroke-width:1pt;marker-start:none;marker-end:none" />
          <path
             d="m 21.39811,20.54812 c -1.360509,8.347524 3.536072,8.76994 4.505041,13.824958"
             id="path4920"
             style="fill:none;stroke:#000000;stroke-width:1pt;marker-start:none;marker-end:none" />
        </g>
        <path
           d="m -14.09007,-6.7318716 -0.922168,4.043383 3.962751,-1.22307 -3.040583,-2.820313 z"
           id="path4922"
           style="fill:#030300;fill-rule:evenodd;stroke-width:1pt;marker-end:none" />
        <path
           d="m -15.215679,4.5567534 1.874127,3.699613 2.266874,-3.472855 -4.141001,-0.226758 z"
           id="path4924"
           style="fill:#030300;fill-rule:evenodd;stroke-width:1pt;marker-end:none" />
      </g>
    </marker>
    <marker
       refX="0"
       refY="0"
       orient="auto"
       id="DiamondL"
       style="overflow:visible">
      <path
         d="M -2.1579186e-5,-7.0710768 -7.0710894,-8.9383918e-6 -2.1579186e-5,7.0710589 7.0710462,-8.9383918e-6 -2.1579186e-5,-7.0710768 z"
         transform="scale(0.8,0.8)"
         id="path4981"
         style="fill-rule:evenodd;stroke:#000000;stroke-width:1pt;marker-start:none" />
    </marker>
    <marker
       refX="0"
       refY="0"
       orient="auto"
       id="DistanceIn"
       style="overflow:visible">
      <g
         transform="matrix(0.6,0,0,0.6,4.8,0)"
         id="g5009">
        <path
           d="M 0,0 5,-5 -12.5,0 5,5 0,0 z"
           id="path5011"
           style="fill-rule:evenodd;stroke:#000000;stroke-width:1pt;marker-start:none" />
        <path
           d="m -14.759949,-7 0,72"
           id="path5013"
           style="fill:none;stroke:#000000;stroke-width:1.2pt;marker-start:none" />
      </g>
    </marker>
    <marker
       refX="0"
       refY="0"
       orient="auto"
       id="Dot_l"
       style="overflow:visible">
      <path
         d="m -2.5,-1 c 0,2.76 -2.24,5 -5,5 -2.76,0 -5,-2.24 -5,-5 0,-2.76 2.24,-5 5,-5 2.76,0 5,2.24 5,5 z"
         transform="matrix(0.8,0,0,0.8,5.700394,0.8)"
         id="path4999"
         style="fill-rule:evenodd;stroke:#000000;stroke-width:1pt;marker-start:none;marker-end:none" />
    </marker>
    <marker
       refX="0"
       refY="0"
       orient="auto"
       id="StopS"
       style="overflow:visible">
      <path
         d="M 0,5.65 0,-5.65"
         transform="scale(0.2,0.2)"
         id="path4948"
         style="fill:none;stroke:#000000;stroke-width:1pt" />
    </marker>
    <marker
       refX="0"
       refY="0"
       orient="auto"
       id="Arrow2Sstart"
       style="overflow:visible">
      <path
         d="M 8.7185878,4.0337352 -2.2072895,0.01601326 8.7185884,-4.0017078 c -1.7454984,2.3720609 -1.7354408,5.6174519 -6e-7,8.035443 z"
         transform="matrix(0.3,0,0,0.3,-1.5,0)"
         id="path5034"
         style="font-size:12px;fill-rule:evenodd;stroke-width:0.625;stroke-linejoin:round" />
    </marker>
    <marker
       refX="0"
       refY="0"
       orient="auto"
       id="StopL"
       style="overflow:visible">
      <path
         d="M 0,5.65 0,-5.65"
         transform="scale(0.8,0.8)"
         id="path4954"
         style="fill:none;stroke:#000000;stroke-width:1pt" />
    </marker>
  </defs>
  <g
     id="layer1"
     style="display:inline">
    <path
       d="m 513.77954,389.76379 a 124.01575,124.01575 0 1 1 -248.03149,0 124.01575,124.01575 0 1 1 248.03149,0 z"
       transform="translate(-35.43309,53.14961)"
       id="path4889"
       style="fill:#ffffff;fill-opacity:1;fill-rule:evenodd;stroke:none" />
    <path
       d="m 248.32372,572.29748 c -17.92997,-34.33761 -19.57938,-76.5407 -0.70891,-113.68297 10.23276,-20.14088 25.23129,-36.2901 42.91895,-47.77266 -82.64715,1.32943 -161.86993,47.19083 -201.892022,125.96533 -17.0039,33.46837 -25.022753,69.15591 -24.988065,104.30784 46.632707,-51.89173 116.093787,-77.42323 184.670047,-68.81754 z"
       id="path10215"
       style="fill:#000000;fill-opacity:1;fill-rule:evenodd;stroke:#000000;stroke-width:1;stroke-linecap:butt;stroke-linejoin:miter;stroke-miterlimit:4;stroke-opacity:1;stroke-dasharray:none;stroke-dashoffset:0" />
    <path
       d="m 295.57153,285.83922 c 38.70223,1.64098 76.07589,21.31408 98.80682,56.22751 12.32614,18.93226 18.81252,39.99598 19.91289,61.05522 40.17222,-72.23926 40.06644,-163.7789 -8.14327,-237.82627 -20.48252,-31.46 -47.37941,-56.24828 -77.83923,-73.794198 21.62323,66.330968 9.00365,139.251778 -32.73721,194.337738 z"
       id="path10203"
       style="fill:#000000;fill-opacity:1;fill-rule:evenodd;stroke:#000000;stroke-width:1;stroke-linecap:butt;stroke-linejoin:miter;stroke-miterlimit:4;stroke-opacity:1;stroke-dasharray:none;stroke-dashoffset:0" />
    <path
       d="m 519.09622,470.59314 c -20.77227,32.69663 -56.49651,55.22662 -98.0979,57.45547 -22.55891,1.20861 -44.04381,-3.70588 -62.83184,-13.28256 42.47493,70.90983 121.80348,116.58806 210.03528,111.86094 37.48642,-2.00838 72.40217,-12.90763 102.8273,-30.51365 C 602.77312,581.67411 545.93163,534.2848 519.09622,470.59314 z"
       id="path9297"
       style="fill:#000000;fill-opacity:1;fill-rule:evenodd;stroke:#000000;stroke-width:1;stroke-linecap:butt;stroke-linejoin:miter;stroke-miterlimit:4;stroke-opacity:1;stroke-dasharray:none;stroke-dashoffset:0" />
    <rect
       width="124.01575"
       height="0"
       x="292.32281"
       y="407.48035"
       id="rect18258"
       style="fill:none;stroke:#000000;stroke-width:1;stroke-linecap:butt;stroke-linejoin:miter;stroke-miterlimit:4;stroke-opacity:1;stroke-dasharray:none;stroke-dashoffset:0" />
  </g>
</svg>
